<?xml version="1.0"?>
<svg xmlns="http://www.w3.org/2000/svg" xmlns:xlink="http://www.w3.org/1999/xlink" xmlns:svgjs="http://svgjs.com/svgjs" version="1.1" width="512" height="512" x="0" y="0" viewBox="0 0 512 512" style="enable-background:new 0 0 512 512" xml:space="preserve" class=""><g>
<path xmlns="http://www.w3.org/2000/svg" style="" d="M312.412,455.591c16.878,0,32.748-6.574,44.691-18.515l136.299-136.3  c8.841-8.807,14.827-19.891,17.315-32.059c0.852-4.167,1.283-8.448,1.283-12.721c0.002-16.927-6.605-32.83-18.583-44.761  L357.13,74.949c-11.939-11.956-27.822-18.54-44.724-18.54c-34.848,0-63.199,28.352-63.203,63.198  c-0.002,16.881,6.572,32.754,18.513,44.696l28.492,28.491H63.174c-16.886,0-32.758,6.574-44.694,18.513  c-24.64,24.645-24.64,64.741,0,89.382C30.417,312.627,46.283,319.2,63.208,319.2l233.004,0.001l-28.465,28.466  c-11.958,11.941-18.544,27.823-18.544,44.722c0,34.849,28.354,63.202,63.203,63.203h0.004" fill="#5a5bce" data-original="#2488ff" class=""/>
<path xmlns="http://www.w3.org/2000/svg" style="" d="M0,256c0,16.185,6.16,32.369,18.48,44.689C30.417,312.627,46.283,319.2,63.208,319.2l233.004,0.001  l-28.465,28.466c-11.958,11.941-18.544,27.823-18.544,44.722c0,34.849,28.354,63.202,63.203,63.203h0.004h0.002  c16.878,0,32.748-6.574,44.691-18.515l136.299-136.3c8.841-8.807,14.827-19.891,17.315-32.059c0.852-4.166,1.283-8.446,1.283-12.718  L0,256L0,256z" fill="#3c3ea8" data-original="#006df0" class=""/>
<g xmlns="http://www.w3.org/2000/svg">
</g>
<g xmlns="http://www.w3.org/2000/svg">
</g>
<g xmlns="http://www.w3.org/2000/svg">
</g>
<g xmlns="http://www.w3.org/2000/svg">
</g>
<g xmlns="http://www.w3.org/2000/svg">
</g>
<g xmlns="http://www.w3.org/2000/svg">
</g>
<g xmlns="http://www.w3.org/2000/svg">
</g>
<g xmlns="http://www.w3.org/2000/svg">
</g>
<g xmlns="http://www.w3.org/2000/svg">
</g>
<g xmlns="http://www.w3.org/2000/svg">
</g>
<g xmlns="http://www.w3.org/2000/svg">
</g>
<g xmlns="http://www.w3.org/2000/svg">
</g>
<g xmlns="http://www.w3.org/2000/svg">
</g>
<g xmlns="http://www.w3.org/2000/svg">
</g>
<g xmlns="http://www.w3.org/2000/svg">
</g>
</g></svg>
