<svg id="Glyph" enable-background="new 0 0 64 64" height="512" viewBox="0 0 64 64" width="512" xmlns="http://www.w3.org/2000/svg"><circle cx="13" cy="8" r="5"/><path d="m23 19c0-3.314-2.686-6-6-6h-4-4c-3.314 0-6 2.686-6 6v4h20z"/><circle cx="51" cy="46" r="5"/><path d="m55 51h-4-4c-3.314 0-6 2.686-6 6v4h20v-4c0-3.314-2.686-6-6-6z"/><path d="m33.515 29.978-1.515 1.575-1.515-1.575c-1.255-1.304-3.289-1.304-4.544 0s-1.255 3.419 0 4.724l6.059 6.298 6.059-6.298c1.255-1.304 1.255-3.419 0-4.724-1.255-1.304-3.289-1.304-4.544 0z"/><path d="m33.707 19.293-2.293-2.293h18.586v19h2v-21h-20.586l2.293-2.293-1.414-1.414-4.707 4.707 4.707 4.707z"/><path d="m30.293 50.707 2.293 2.293h-18.586v-25h-2v27h20.586l-2.293 2.293 1.414 1.414 4.707-4.707-4.707-4.707z"/></svg>